dummy_motion.mot										
nRows=68										
nColumns=11										
name dummy_motion.mot										
datacolumns 11										
datarows 68										
range 0.01 0.68										
endheader										
time	pelvis_tilt	pelvis_tx	pelvis_ty	hip_flexion_r	knee_angle_r	ankle_angle_r	hip_flexion_l	knee_angle_l	ankle_angle_l	lumbar_extension
0.01	0	0	0	89.5971984	-21.18254046	30.61523652	89.5971984	-21.18254046	30.61523652	0
0.02	0	0	0	21.87638426	-20.08688045	-10.77565961	21.87638426	-20.08688045	-10.77565961	0
0.03	0	0	0	-64.89486587	-34.69090248	-17.79694265	-64.89486587	-34.69090248	-17.79694265	0
0.04	0	0	0	-38.32815126	-77.17114524	33.23928075	-38.32815126	-77.17114524	33.23928075	0
0.05	0	0	0	29.62624503	-11.29892191	22.78228857	29.62624503	-11.29892191	22.78228857	0
0.06	0	0	0	88.69656658	-9.184294513	-33.97965225	88.69656658	-9.184294513	-33.97965225	0
0.07	0	0	0	-48.30717561	-5.846517001	-10.52398507	-48.30717561	-5.846517001	-10.52398507	0
0.08	0	0	0	19.58543991	-45.54385422	34.52648316	19.58543991	-45.54385422	34.52648316	0
0.09	0	0	0	72.09436981	-48.17535922	2.414003986	72.09436981	-48.17535922	2.414003986	0
0.1	0	0	0	-40.17759694	-50.25335635	38.11898301	-40.17759694	-50.25335635	38.11898301	0
0.11	0	0	0	-18.69313212	-16.77948443	28.57833491	-18.69313212	-16.77948443	28.57833491	0
0.12	0	0	0	-61.33991736	-45.44949982	-13.71612197	-61.33991736	-45.44949982	-13.71612197	0
0.13	0	0	0	-34.41627548	-77.19781567	-23.23823897	-34.41627548	-77.19781567	-23.23823897	0
0.14	0	0	0	24.67037623	-38.90220118	-49.37096538	24.67037623	-38.90220118	-49.37096538	0
0.15	0	0	0	0.287582792	-54.85263047	33.48109595	0.287582792	-54.85263047	33.48109595	0
0.16	0	0	0	12.7047425	-49.73491966	28.32402669	12.7047425	-49.73491966	28.32402669	0
0.17	0	0	0	-20.41263232	-75.3034429	39.55518702	-20.41263232	-75.3034429	39.55518702	0
0.18	0	0	0	-15.48692801	-31.40129982	-18.78490231	-15.48692801	-31.40129982	-18.78490231	0
0.19	0	0	0	26.23773082	-45.71570332	2.91962256	26.23773082	-45.71570332	2.91962256	0
0.2	0	0	0	-21.29164726	9.859571387	38.16248574	-21.29164726	9.859571387	38.16248574	0
0.21	0	0	0	48.26672531	-32.33421766	-38.78060507	48.26672531	-32.33421766	-38.78060507	0
0.22	0	0	0	80.37592188	-0.220458544	-5.386573187	80.37592188	-0.220458544	-5.386573187	0
0.23	0	0	0	-30.95069711	-6.598423917	-10.07526287	-30.95069711	-6.598423917	-10.07526287	0
0.24	0	0	0	41.0766952	-50.77789547	18.90791864	41.0766952	-50.77789547	18.90791864	0
0.25	0	0	0	-64.41253046	-56.04531999	-22.10369769	-64.41253046	-56.04531999	-22.10369769	0
0.26	0	0	0	-42.6474324	-54.99693955	26.48713931	-42.6474324	-54.99693955	26.48713931	0
0.27	0	0	0	3.244774384	-12.10020016	32.63296173	3.244774384	-12.10020016	32.63296173	0
0.28	0	0	0	-53.3043389	8.103264817	-31.79119614	-53.3043389	8.103264817	-31.79119614	0
0.29	0	0	0	83.61713741	-22.17859441	-21.67950524	83.61713741	-22.17859441	-21.67950524	0
0.3	0	0	0	-54.75860297	-3.298204325	34.84910619	-54.75860297	-3.298204325	34.84910619	0
0.31	0	0	0	11.5303553	-3.028448816	-40.57316918	11.5303553	-3.028448816	-40.57316918	0
0.32	0	0	0	64.08404937	-29.70274999	23.15763904	64.08404937	-29.70274999	23.15763904	0
0.33	0	0	0	71.22509079	-57.2219456	32.45983793	71.22509079	-57.2219456	32.45983793	0
0.34	0	0	0	80.22396064	-46.1032098	-25.27540505	80.22396064	-46.1032098	-25.27540505	0
0.35	0	0	0	-41.98335841	-30.94612228	38.38543277	-41.98335841	-30.94612228	38.38543277	0
0.36	0	0	0	70.20058987	-75.96633531	27.97251463	70.20058987	-75.96633531	27.97251463	0
0.37	0	0	0	76.23643254	-49.87770443	-42.19310509	76.23643254	-49.87770443	-42.19310509	0
0.38	0	0	0	-53.79665855	-7.767769795	35.85473352	-53.79665855	-7.767769795	35.85473352	0
0.39	0	0	0	-63.98641639	-35.57917864	-29.50019502	-63.98641639	-35.57917864	-29.50019502	0
0.4	0	0	0	-52.07926479	-56.70797786	23.2669068	-52.07926479	-56.70797786	23.2669068	0
0.41	0	0	0	-69.56054791	-54.37889504	-28.41879771	-69.56054791	-54.37889504	-28.41879771	0
0.42	0	0	0	12.52481783	-6.476899385	-1.864685899	12.52481783	-6.476899385	-1.864685899	0
0.43	0	0	0	-43.13551354	-26.779134	7.487610182	-43.13551354	-26.779134	7.487610182	0
0.44	0	0	0	54.63910567	-44.55205968	18.55786547	54.63910567	-44.55205968	18.55786547	0
0.45	0	0	0	64.70640852	-70.01814491	-28.15467011	64.70640852	-70.01814491	-28.15467011	0
0.46	0	0	0	-61.0101077	9.683846632	-38.01708317	-61.0101077	9.683846632	-38.01708317	0
0.47	0	0	0	6.56394414	-79.52297551	1.182686526	6.56394414	-79.52297551	1.182686526	0
0.48	0	0	0	62.98540922	-57.36296885	-48.99701866	62.98540922	-57.36296885	-48.99701866	0
0.49	0	0	0	24.97861956	-19.66817841	-25.97485876	24.97861956	-19.66817841	-25.97485876	0
0.5	0	0	0	79.9570577	-24.09290955	-38.43637169	79.9570577	-24.09290955	-38.43637169	0
0.51	0	0	0	41.47856666	-42.02137032	3.680211826	41.47856666	-42.02137032	3.680211826	0
0.52	0	0	0	35.15581216	-23.2753223	11.60731072	35.15581216	-23.2753223	11.60731072	0
0.53	0	0	0	-3.194685762	-76.4590036	35.19625919	-3.194685762	-76.4590036	35.19625919	0
0.54	0	0	0	24.84568867	-39.86375269	-48.17865349	24.84568867	-39.86375269	-48.17865349	0
0.55	0	0	0	54.4247112	-50.46256731	19.80596619	54.4247112	-50.46256731	19.80596619	0
0.56	0	0	0	-6.445721824	-8.225039591	-26.73415006	-6.445721824	-8.225039591	-26.73415006	0
0.57	0	0	0	12.63058754	-2.995761636	-11.17942566	12.63058754	-2.995761636	-11.17942566	0
0.58	0	0	0	-65.40665779	3.101232553	4.660921706	-65.40665779	3.101232553	4.660921706	0
0.59	0	0	0	68.82690969	-53.36505329	-41.6932973	68.82690969	-53.36505329	-41.6932973	0
0.6	0	0	0	-48.99420485	1.233008973	-17.37950245	-48.99420485	1.233008973	-17.37950245	0
0.61	0	0	0	55.61439463	-71.42623062	-27.34716401	55.61439463	-71.42623062	-27.34716401	0
0.62	0	0	0	88.61934066	-44.45105133	-41.77911723	88.61934066	-44.45105133	-41.77911723	0
0.63	0	0	0	70.13039785	-18.9797589	-19.56660175	70.13039785	-18.9797589	-19.56660175	0
0.64	0	0	0	-44.764547	-66.19219193	-38.65459466	-44.764547	-66.19219193	-38.65459466	0
0.65	0	0	0	-43.47915227	-74.1263989	37.444152	-43.47915227	-74.1263989	37.444152	0
0.66	0	0	0	-69.943956	-70.42638206	-43.61182751	-69.943956	-70.42638206	-43.61182751	0
0.67	0	0	0	35.53513266	-71.31855336	0.481445227	35.53513266	-71.31855336	0.481445227	0
0.68	0	0	0	-37.13176157	-44.36998079	11.66304485	-37.13176157	-44.36998079	11.66304485	0
